<svg width="100" height="100" viewBox="0 0 100 100" fill="none" xmlns="http://www.w3.org/2000/svg">
<path d="M94.9239 1.17188H5.0802C2.91956 1.17188 1.17395 2.91748 1.17395 5.07812V94.9219C1.17395 97.0825 2.91956 98.8281 5.0802 98.8281H94.9239C97.0846 98.8281 98.8302 97.0825 98.8302 94.9219V5.07812C98.8302 2.91748 97.0846 1.17188 94.9239 1.17188ZM91.0177 91.0156H68.5446V61.0107H81.2399L83.1442 46.2769H68.5446V36.8652C68.5446 32.5928 69.7286 29.6875 75.8444 29.6875H83.6446V16.5039C82.2897 16.3208 77.6632 15.918 72.2677 15.918C61.0128 15.918 53.3102 22.7905 53.3102 35.4004V46.2646H40.5905V60.9985H53.3224V91.0156H8.98645V8.98438H91.0177V91.0156Z" fill="white"/>
</svg>
